<?xml version="1.0" encoding="UTF-8"?>
<svg width="32px" height="32px" viewBox="0 0 32 32" version="1.1" xmlns="http://www.w3.org/2000/svg" xmlns:xlink="http://www.w3.org/1999/xlink">
    <title>ic/meteo/noche/32/n000</title>
    <g id="ic/meteo/noche/32/n000" stroke="none" stroke-width="1" fill="none" fill-rule="evenodd">
        <path d="M8.17198762,4.94397113 C10.9329746,3.23850639 14.2283461,2.61017728 17.3901215,3.23850639 C17.7463779,3.3282677 17.9690381,3.5975516 18.0135702,3.91171616 C18.0581022,4.22588071 17.879974,4.54004527 17.5682497,4.67468722 C17.1674613,4.85420983 16.7666728,5.03373243 16.4104165,5.25813568 C11.8236155,8.08561669 10.39859,14.1445046 13.204109,18.7672116 C15.4307114,22.4923056 19.9284482,24.242651 24.0699287,23.1206347 C24.381653,23.0308734 24.7379094,23.1655154 24.8715055,23.4347993 C25.0496337,23.7040832 25.0496337,24.0631284 24.8269735,24.3324123 C23.9363325,25.4095479 22.8675634,26.3520416 21.6651981,27.070132 C19.6167239,28.3267902 17.3010574,29 14.9408589,29 C13.9166218,29 12.9369167,28.865358 11.9126796,28.6409548 C8.528244,27.8331031 5.72272499,25.7685931 3.89691103,22.8064702 C2.11562912,19.8443472 1.5367125,16.3436565 2.38282141,13.0224883 C3.18439827,9.61155882 5.23287246,6.78407781 8.17198762,4.94397113 Z M29,13 C29.092,13 29.1666667,13.0746667 29.1666667,13.1666667 C29.1666667,13.5343333 29.4656667,13.8333333 29.8333333,13.8333333 C29.9253333,13.8333333 30,13.908 30,14 C30,14.092 29.9253333,14.1666667 29.8333333,14.1666667 C29.4656667,14.1666667 29.1666667,14.4656667 29.1666667,14.8333333 C29.1666667,14.9253333 29.092,15 29,15 C28.908,15 28.8333333,14.9253333 28.8333333,14.8333333 C28.8333333,14.4656667 28.5343333,14.1666667 28.1666667,14.1666667 C28.0746667,14.1666667 28,14.092 28,14 C28,13.908 28.0746667,13.8333333 28.1666667,13.8333333 C28.5343333,13.8333333 28.8333333,13.5343333 28.8333333,13.1666667 C28.8333333,13.0746667 28.908,13 29,13 Z M23,7 C23.184,7 23.3333333,7.14933333 23.3333333,7.33333333 C23.3333333,8.06866667 23.9313333,8.66666667 24.6666667,8.66666667 C24.8506667,8.66666667 25,8.816 25,9 C25,9.184 24.8506667,9.33333333 24.6666667,9.33333333 C23.9313333,9.33333333 23.3333333,9.93133333 23.3333333,10.6666667 C23.3333333,10.8506667 23.184,11 23,11 C22.816,11 22.6666667,10.8506667 22.6666667,10.6666667 C22.6666667,9.93133333 22.0686667,9.33333333 21.3333333,9.33333333 C21.1493333,9.33333333 21,9.184 21,9 C21,8.816 21.1493333,8.66666667 21.3333333,8.66666667 C22.0686667,8.66666667 22.6666667,8.06866667 22.6666667,7.33333333 C22.6666667,7.14933333 22.816,7 23,7 Z" id="Combined-Shape" fill="#FCB400"></path>
    </g>
</svg>