<?xml version="1.0" encoding="UTF-8"?>
<svg width="32px" height="32px" viewBox="0 0 32 32" version="1.1" xmlns="http://www.w3.org/2000/svg" xmlns:xlink="http://www.w3.org/1999/xlink">
    <title>ic/meteo/noche/32/n300</title>
    <g id="ic/meteo/noche/32/n300" stroke="none" stroke-width="1" fill="none" fill-rule="evenodd">
        <g id="Group" transform="translate(2.000000, 2.000000)">
            <path d="M6.59020713,16.7949605 C7.85623216,16.7949605 9.0417594,17.2568429 9.93071914,18.0676994 L10.2005772,18.313848 L10.562766,18.2455611 C10.8030852,18.2002515 11.0486799,18.177206 11.2976248,18.177206 C13.3482141,18.177206 15,19.7363502 15,21.6465298 C15,23.5567266 13.3481964,25.1159235 11.2976248,25.1159235 C10.8482459,25.1159235 10.4106017,25.0408803 9.9987324,24.8962854 L9.65236312,24.7746856 L9.34744436,24.9763239 C8.54629429,25.5061128 7.59245803,25.7949605 6.59020713,25.7949605 C4.85286179,25.7949605 3.28158815,24.9209493 2.43214078,23.5360485 L2.26178987,23.258316 L1.93589477,23.2020759 C0.817203997,23.0090218 0,22.0932667 0,21.0273626 C0,19.8511332 0.990571719,18.8740335 2.25565523,18.8181457 L2.5834673,18.8036639 L2.78890415,18.5531695 C3.69104712,17.4531635 5.0809182,16.7949605 6.59020713,16.7949605 Z" id="Path" fill="#B0B0B0" fill-rule="nonzero"></path>
            <path d="M19.2201675,1.04675368 C20.6606824,0.12842652 22.3800067,-0.209904541 24.0296286,0.12842652 C24.2155015,0.176759528 24.3316721,0.321758554 24.3549062,0.490924084 C24.3781403,0.660089615 24.2852038,0.829255145 24.1225651,0.901754658 C23.9134581,0.998420675 23.704351,1.09508669 23.5184781,1.21591921 C21.1253646,2.73840899 20.381873,6.00088707 21.8456221,8.49003701 C23.0073277,10.4958569 25.353973,11.4383505 27.5147454,10.8341879 C27.6773842,10.7858549 27.8632571,10.8583544 27.9329594,11.0033535 C28.0258959,11.1483525 28.0258959,11.3416845 27.9097253,11.4866836 C27.4450431,12.0666797 26.8874244,12.5741762 26.2601034,12.9608403 C25.6119312,13.3712129 24.9124859,13.6660354 24.1876802,13.8345268 C23.5254777,12.1340147 21.887921,10.9017818 19.944805,10.738793 L19.816,10.73 L19.8119722,10.6554198 C19.622058,8.58575554 18.0639356,6.91139025 16.0289524,6.43278591 C16.0577032,6.08653002 16.1150327,5.73984792 16.1997329,5.39672446 C16.6179469,3.56007013 17.6867161,2.03758036 19.2201675,1.04675368 Z" id="Combined-Shape" fill="#FCB400"></path>
            <path d="M14.8348635,7.79496052 C16.7720318,7.79496052 18.3314547,9.27255284 18.3314547,11.0822318 C18.3314547,11.2187512 18.3217249,11.3587657 18.3026751,11.5025299 L18.1902834,12.3507235 L19.0517988,12.247429 C19.2015832,12.22947 19.3526232,12.2204179 19.5048379,12.2204179 C21.4409063,12.2204179 23,13.6981033 23,15.5075466 C23,17.3172834 21.4409734,18.7949605 19.5048379,18.7949605 L15.5605705,18.795736 C14.6165368,17.510924 13.0528701,16.677206 11.2976248,16.677206 L11.0422125,16.6831194 C10.9572718,16.6870597 10.8725444,16.6929671 10.7880803,16.7008355 L10.656,16.7159605 L10.4843504,16.5805258 C9.37913501,15.7495522 8.01490957,15.2949605 6.59020713,15.2949605 L6.31350603,15.3007023 C4.65892136,15.3694504 3.11139484,16.0527968 1.98755914,17.2018873 L1.848,17.3489605 L1.7990762,17.3558173 L1.62625177,17.3853055 C1.23125648,16.8522684 1,16.2045343 1,15.5075466 C1,13.6981473 2.5591984,12.2204179 4.49538773,12.2204179 L4.64212415,12.2254507 L4.83972137,12.2407383 L5.08622891,12.2664512 L5.81673398,12.3501791 L5.83722843,11.6255994 C5.88735702,9.85330758 7.43057879,8.42705668 9.33189985,8.42705668 C10.0599366,8.42705668 10.752445,8.63614521 11.3348543,9.01981392 L11.8146494,9.33588438 L12.2050554,8.91699546 C12.8646585,8.20926949 13.8129884,7.79496052 14.8348635,7.79496052 Z" id="Combined-Shape" fill="#B0B0B0" fill-rule="nonzero"></path>
        </g>
    </g>
</svg>