<?xml version="1.0" encoding="UTF-8"?>
<svg width="32px" height="32px" viewBox="0 0 32 32" version="1.1" xmlns="http://www.w3.org/2000/svg" xmlns:xlink="http://www.w3.org/1999/xlink">
    <title>ic/meteo/dia/32/d400</title>
    <g id="ic/meteo/dia/32/d400" stroke="none" stroke-width="1" fill="none" fill-rule="evenodd">
        <g id="Group" transform="translate(2.000000, 5.000000)" fill="#B0B0B0" fill-rule="nonzero">
            <path d="M17.608008,0 C20.073495,0 22.0582151,1.88057204 22.0582151,4.18379986 C22.0582151,4.35755175 22.0458317,4.5357521 22.0215865,4.71872461 L21.8785426,5.79824374 L22.9750167,5.66677803 C23.1656514,5.6439212 23.3578841,5.63240028 23.5516119,5.63240028 C26.015699,5.63240028 28,7.51309083 28,9.81601867 C28,12.1193201 26.0157844,14 23.5516119,14 L18.6698508,14.0006112 C17.6319176,12.3142862 15.7256964,11.1894112 13.5571498,11.1894112 L13.263347,11.1963372 C13.1656474,11.2009521 13.0682015,11.2078707 12.9710663,11.2170855 L12.703,11.248 L12.4708813,11.0583249 C11.1850558,10.0523588 9.58384698,9.5 7.90824855,9.5 L7.61581869,9.50563286 C5.5752316,9.58432954 3.67652766,10.4841952 2.356,11.996 L2.22626141,12.0119383 C1.77290063,12.0744348 1.34196074,12.2046457 0.944817259,12.3916995 C0.352209248,11.6817838 0,10.7864084 0,9.81601867 C0,7.51314685 1.98443433,5.63240028 4.44867529,5.63240028 L4.63543073,5.63880571 L4.8869181,5.65826268 L5.20065498,5.69098812 L6.1303887,5.7975509 L6.15647255,4.87535858 C6.22027257,2.61971445 8.18437301,0.804486023 10.6042362,0.804486023 C11.5308284,0.804486023 12.4122027,1.0705987 13.1534509,1.55890433 L13.7640993,1.96117583 L14.2609796,1.42804447 C15.1004744,0.52730233 16.3074398,0 17.608008,0 Z" id="Combined-Shape"></path>
            <path d="M7.90824855,11 C9.42747859,11 10.8501113,11.564523 11.916863,12.5555698 L12.2406927,12.856418 L12.6753192,12.7729563 C12.9637022,12.7175779 13.2584158,12.6894112 13.5571498,12.6894112 C16.0178569,12.6894112 18,14.5950318 18,16.9296958 C18,19.2643808 16.0178357,21.1700659 13.5571498,21.1700659 C13.017895,21.1700659 12.492722,21.0783464 11.9984789,20.9016193 L11.5828357,20.7529973 L11.2169332,20.9994442 C10.2555531,21.6469639 9.11094963,22 7.90824855,22 C5.82343415,22 3.93790578,20.9317641 2.91856893,19.2391075 L2.71414784,18.8996567 L2.32307373,18.8309187 C0.980644796,18.5949638 0,17.4757075 0,16.1729359 C0,14.7353222 1.18868606,13.5410892 2.70678628,13.4727819 L3.10016075,13.4550819 L3.34668498,13.1489221 C4.42925654,11.8044703 6.09710184,11 7.90824855,11 Z" id="Path"></path>
        </g>
    </g>
</svg>