<?xml version="1.0" encoding="UTF-8"?>
<svg width="32px" height="32px" viewBox="0 0 32 32" version="1.1" xmlns="http://www.w3.org/2000/svg" xmlns:xlink="http://www.w3.org/1999/xlink">
    <title>ic/meteo/dia/32/d210</title>
    <g id="ic/meteo/dia/32/d210" stroke="none" stroke-width="1" fill="none" fill-rule="evenodd">
        <g id="Group" transform="translate(2.000000, 2.000000)">
            <path d="M2.1857761,9.78034093 L3.23963965,11.3427579 L1.15029091,11.615413 L2.1857761,9.78034093 Z M2.77498454,6.50095485 C3.27149069,3.94665211 5.74465995,2.27847838 8.29896269,2.77498454 C9.99312668,3.10429666 11.2974716,4.30316729 11.8389472,5.81852681 C9.92004524,6.30100958 8.42956595,7.82454398 8.09780492,9.74657415 L7.979624,9.74276564 C6.60842155,9.74238526 5.36412787,10.2436976 4.4414062,11.0659025 C3.12812061,10.0065022 2.43048361,8.27325848 2.77498454,6.50095485 Z M2.02979048,5.39615922 L1.67018891,7.24614891 L0,5.96155249 L2.02979048,5.39615922 Z M13.6496266,3.18450457 L12.6141414,5.0195766 L11.5602779,3.45715964 L13.6496266,3.18450457 Z M3.18450457,1.15029091 L5.0195766,2.1857761 L3.45715964,3.23963965 L3.18450457,1.15029091 Z M8.83836504,0 L9.40375832,2.02979048 L7.55376863,1.67018891 L8.83836504,0 Z" id="Shape" fill="#FCB400"></path>
            <path d="M19.0682733,6.32303569 C21.1544546,6.32303569 22.8338331,7.91428895 22.8338331,9.86317403 C22.8338331,10.0101949 22.8233548,10.1609798 22.8028397,10.3158027 L22.6818025,11.2292419 L23.6095883,11.1180017 C23.7708945,11.0986613 23.933553,11.0889129 24.0974765,11.0889129 C26.1824733,11.0889129 27.8614972,12.6802664 27.8614972,14.6288976 C27.8614972,16.577845 26.1825456,18.1691895 24.0974765,18.1691895 L7.93345325,18.1691895 C5.84822408,18.1691895 4.16918954,16.5778458 4.16918954,14.6288976 C4.16918954,12.6803138 5.84832628,11.0889129 7.93345325,11.0889129 L8.09147708,11.0943328 L8.30427409,11.1107964 L8.56974375,11.1384872 L9.35644151,11.2286557 L9.37851246,10.4483391 C9.43249709,8.53971714 11.0944282,7.00375463 13.1420048,7.00375463 C13.9260444,7.00375463 14.6718226,7.2289269 15.2990326,7.64210858 L15.8157351,7.98249216 L16.2361722,7.53138101 C16.946514,6.76921458 17.9677924,6.32303569 19.0682733,6.32303569 Z" id="Path" fill="#B0B0B0" fill-rule="nonzero"></path>
            <path d="M12.9230769,23.0169903 C12.7948718,22.8276699 12.5064103,22.8276699 12.4102564,23.0169903 C11.9294872,23.8058252 11,25.4466019 11,26.1092233 C11,27.0242718 11.7371795,27.75 12.6666667,27.75 C13.5961538,27.75 14.3333333,27.0242718 14.3333333,26.1092233 C14.3333333,25.4466019 13.4038462,23.7742718 12.9230769,23.0169903 Z M19.5897436,20.1419903 C19.4615385,19.9526699 19.1730769,19.9526699 19.0769231,20.1419903 C18.5961538,20.9308252 17.6666667,22.5716019 17.6666667,23.2342233 C17.6666667,24.1492718 18.4038462,24.875 19.3333333,24.875 C20.2628205,24.875 21,24.1492718 21,23.2342233 C21,22.5716019 20.0705128,20.8992718 19.5897436,20.1419903 Z" id="Combined-Shape" fill="#04AEEF" fill-rule="nonzero"></path>
        </g>
    </g>
</svg>