<?xml version="1.0" encoding="UTF-8"?>
<svg width="32px" height="32px" viewBox="0 0 32 32" version="1.1" xmlns="http://www.w3.org/2000/svg" xmlns:xlink="http://www.w3.org/1999/xlink">
    <title>ic/meteo/noche/32/n210</title>
    <g id="ic/meteo/noche/32/n210" stroke="none" stroke-width="1" fill="none" fill-rule="evenodd">
        <path d="M21.2201675,3.04675368 C22.6606824,2.12842652 24.3800067,1.79009546 26.0296286,2.12842652 C26.2155015,2.17675953 26.3316721,2.32175855 26.3549062,2.49092408 C26.3781403,2.66008961 26.2852038,2.82925514 26.1225651,2.90175466 C25.9134581,2.99842068 25.704351,3.09508669 25.5184781,3.21591921 C23.1253646,4.73840899 22.381873,8.00088707 23.8456221,10.490037 C25.0073277,12.4958569 27.353973,13.4383505 29.5147454,12.8341879 C29.6773842,12.7858549 29.8632571,12.8583544 29.9329594,13.0033535 C30.0258959,13.1483525 30.0258959,13.3416845 29.9097253,13.4866836 C29.4450431,14.0666797 28.8874244,14.5741762 28.2601034,14.9608403 C27.430401,15.4861438 26.5166841,15.8221109 25.5733043,15.9461287 C25.1460419,13.8732279 23.3284449,12.2987704 21.1139945,12.113022 L20.986,12.105 L20.9811618,12.0296488 C20.8193609,10.2663601 19.6644456,8.78999925 18.0676267,8.09557323 C18.0977346,7.86220854 18.1424811,7.62865355 18.1997329,7.39672446 C18.6179469,5.56007013 19.6867161,4.03758036 21.2201675,3.04675368 Z" id="Combined-Shape" fill="#FCB400"></path>
        <path d="M9.92307692,25.0169903 C9.79487179,24.8276699 9.50641026,24.8276699 9.41025641,25.0169903 C8.92948718,25.8058252 8,27.4466019 8,28.1092233 C8,29.0242718 8.73717949,29.75 9.66666667,29.75 C10.5961538,29.75 11.3333333,29.0242718 11.3333333,28.1092233 C11.3333333,27.4466019 10.4038462,25.7742718 9.92307692,25.0169903 Z M16.5897436,22.1419903 C16.4615385,21.9526699 16.1730769,21.9526699 16.0769231,22.1419903 C15.5961538,22.9308252 14.6666667,24.5716019 14.6666667,25.2342233 C14.6666667,26.1492718 15.4038462,26.875 16.3333333,26.875 C17.2628205,26.875 18,26.1492718 18,25.2342233 C18,24.5716019 17.0705128,22.8992718 16.5897436,22.1419903 Z" id="Combined-Shape" fill="#04AEEF" fill-rule="nonzero"></path>
        <path d="M16.004053,9.16918954 C17.9412213,9.16918954 19.5006442,10.6467819 19.5006442,12.4564609 C19.5006442,12.5929802 19.4909145,12.7329948 19.4718647,12.8767589 L19.359473,13.7249525 L20.2209884,13.621658 C20.3707728,13.6036991 20.5218127,13.5946469 20.6740275,13.5946469 C22.6100959,13.5946469 24.1691895,15.0723323 24.1691895,16.8817756 C24.1691895,18.6915125 22.610163,20.1691895 20.6740275,20.1691895 L5.66457727,20.1691895 C3.72829304,20.1691895 2.16918954,18.6915132 2.16918954,16.8817756 C2.16918954,15.0723763 3.72838794,13.5946469 5.66457727,13.5946469 L5.81131368,13.5996797 L6.0089109,13.6149674 L6.25541845,13.6406802 L6.98592351,13.7244081 L7.00641797,12.9998284 C7.05654655,11.2275366 8.59976833,9.8012857 10.5010894,9.8012857 C11.2291262,9.8012857 11.9216345,10.0103742 12.5040438,10.3940429 L12.983839,10.7101134 L13.3742449,10.2912245 C14.033848,9.58349851 14.982178,9.16918954 16.004053,9.16918954 Z" id="Path" fill="#B0B0B0" fill-rule="nonzero"></path>
    </g>
</svg>