<?xml version="1.0" encoding="UTF-8"?>
<svg width="32px" height="32px" viewBox="0 0 32 32" version="1.1" xmlns="http://www.w3.org/2000/svg" xmlns:xlink="http://www.w3.org/1999/xlink">
    <title>ic/meteo/dia/32/d410</title>
    <g id="ic/meteo/dia/32/d410" stroke="none" stroke-width="1" fill="none" fill-rule="evenodd">
        <path d="M19.7203702,4.79496052 C22.1858572,4.79496052 24.1705773,6.67553256 24.1705773,8.97876038 C24.1705773,9.15251227 24.1581939,9.33071262 24.1339487,9.51368513 L23.9909048,10.5932043 L25.0873789,10.4617386 C25.2780136,10.4388817 25.4702463,10.4273608 25.6639741,10.4273608 C28.1280612,10.4273608 30.1123622,12.3080514 30.1123622,14.6109792 C30.1123622,16.9142806 28.1281466,18.7949605 25.6639741,18.7949605 L14.4285932,18.7948774 C14.064075,16.8458158 12.3474306,15.3700404 10.2849249,15.3700404 L10.005043,15.3792101 L9.956,15.384 L9.93509363,15.3660687 C9.05605362,14.6751042 7.9693148,14.2949605 6.83281856,14.2949605 L6.57324267,14.3015995 C5.28084322,14.3678063 4.07587342,14.9264569 3.19368016,15.8543365 L3.13,15.924 L3.04358119,15.9408653 C2.82672494,15.9879674 2.61815292,16.0566252 2.4201914,16.1444314 C2.22191544,15.6700479 2.1123622,15.15218 2.1123622,14.6109792 C2.1123622,12.3081074 4.09679653,10.4273608 6.56103749,10.4273608 L6.74779293,10.4337662 L6.9992803,10.4532232 L7.31301718,10.4859486 L8.24275089,10.5925114 L8.26883475,9.6703191 C8.33263477,7.41467496 10.2967352,5.59944654 12.7165984,5.59944654 C13.6431906,5.59944654 14.5245649,5.86555922 15.2658131,6.35386484 L15.8764615,6.75613635 L16.3733418,6.22300499 C17.2128366,5.32226285 18.419802,4.79496052 19.7203702,4.79496052 Z" id="Combined-Shape" fill="#6273A0"></path>
        <g id="Group" transform="translate(14.045455, 21.000000)" fill="#04AEEF" fill-rule="nonzero">
            <path d="M6.70454545,0.134245366 C6.59090909,-0.0447484554 6.33522727,-0.0447484554 6.25,0.134245366 C5.82386364,0.880052957 5,2.43133274 5,3.05781112 C5,3.92294793 5.65340909,4.60909091 6.47727273,4.60909091 C7.30113636,4.60909091 7.95454545,3.92294793 7.95454545,3.05781112 C7.95454545,2.43133274 7.13068182,0.850220653 6.70454545,0.134245366 Z" id="Path-Copy"></path>
            <path d="M1.70454545,4.13424537 C1.59090909,3.95525154 1.33522727,3.95525154 1.25,4.13424537 C0.823863636,4.88005296 0,6.43133274 0,7.05781112 C0,7.92294793 0.653409091,8.60909091 1.47727273,8.60909091 C2.30113636,8.60909091 2.95454545,7.92294793 2.95454545,7.05781112 C2.95454545,6.43133274 2.13068182,4.85022065 1.70454545,4.13424537 Z" id="Path-Copy"></path>
        </g>
        <path d="M6.83281856,15.7949605 C7.76123692,15.7949605 8.63062356,16.1542024 9.28252737,16.7848686 L9.4804233,16.9763174 L9.74602839,16.9232054 C9.92226245,16.8879646 10.1023652,16.8700404 10.2849249,16.8700404 C11.7886903,16.8700404 13,18.082708 13,19.5684033 C13,21.0541119 11.7886773,22.2668206 10.2849249,22.2668206 C9.95538031,22.2668206 9.63444123,22.2084537 9.33240376,22.095991 L9.07839962,22.0014134 L8.85479253,22.1582432 C8.26728248,22.5703012 7.56780255,22.7949605 6.83281856,22.7949605 C5.55876531,22.7949605 4.40649798,22.115174 3.7835699,21.0380289 L3.6586459,20.8220148 L3.41965617,20.7782724 C2.59928293,20.6281193 2,19.9158653 2,19.0868288 C2,18.1719837 2.72641926,17.4120173 3.65414717,17.368549 L3.89454268,17.3572854 L4.04519638,17.1624564 C4.70676789,16.3068961 5.72600668,15.7949605 6.83281856,15.7949605 Z" id="Path" fill="#6273A0"></path>
    </g>
</svg>