<?xml version="1.0" encoding="UTF-8"?>
<svg width="32px" height="32px" viewBox="0 0 32 32" version="1.1" xmlns="http://www.w3.org/2000/svg" xmlns:xlink="http://www.w3.org/1999/xlink">
    <title>ic/meteo/noche/32/n422</title>
    <g id="ic/meteo/noche/32/n422" stroke="none" stroke-width="1" fill="none" fill-rule="evenodd">
        <path d="M19.7203702,4.79496052 C22.1858572,4.79496052 24.1705773,6.67553256 24.1705773,8.97876038 C24.1705773,9.15251227 24.1581939,9.33071262 24.1339487,9.51368513 L23.9909048,10.5932043 L25.0873789,10.4617386 C25.2780136,10.4388817 25.4702463,10.4273608 25.6639741,10.4273608 C28.1280612,10.4273608 30.1123622,12.3080514 30.1123622,14.6109792 C30.1123622,16.9142806 28.1281466,18.7949605 25.6639741,18.7949605 L14.4285932,18.7948774 C14.064075,16.8458158 12.3474306,15.3700404 10.2849249,15.3700404 L10.005043,15.3792101 L9.956,15.384 L9.93509363,15.3660687 C9.05605362,14.6751042 7.9693148,14.2949605 6.83281856,14.2949605 L6.57324267,14.3015995 C5.28084322,14.3678063 4.07587342,14.9264569 3.19368016,15.8543365 L3.13,15.924 L3.04358119,15.9408653 C2.82672494,15.9879674 2.61815292,16.0566252 2.4201914,16.1444314 C2.22191544,15.6700479 2.1123622,15.15218 2.1123622,14.6109792 C2.1123622,12.3081074 4.09679653,10.4273608 6.56103749,10.4273608 L6.74779293,10.4337662 L6.9992803,10.4532232 L7.31301718,10.4859486 L8.24275089,10.5925114 L8.26883475,9.6703191 C8.33263477,7.41467496 10.2967352,5.59944654 12.7165984,5.59944654 C13.6431906,5.59944654 14.5245649,5.86555922 15.2658131,6.35386484 L15.8764615,6.75613635 L16.3733418,6.22300499 C17.2128366,5.32226285 18.419802,4.79496052 19.7203702,4.79496052 Z" id="Combined-Shape" fill="#6273A0"></path>
        <path d="M6.83281856,15.7949605 C7.76123692,15.7949605 8.63062356,16.1542024 9.28252737,16.7848686 L9.4804233,16.9763174 L9.74602839,16.9232054 C9.92226245,16.8879646 10.1023652,16.8700404 10.2849249,16.8700404 C11.7886903,16.8700404 13,18.082708 13,19.5684033 C13,21.0541119 11.7886773,22.2668206 10.2849249,22.2668206 C9.95538031,22.2668206 9.63444123,22.2084537 9.33240376,22.095991 L9.07839962,22.0014134 L8.85479253,22.1582432 C8.26728248,22.5703012 7.56780255,22.7949605 6.83281856,22.7949605 C5.55876531,22.7949605 4.40649798,22.115174 3.7835699,21.0380289 L3.6586459,20.8220148 L3.41965617,20.7782724 C2.59928293,20.6281193 2,19.9158653 2,19.0868288 C2,18.1719837 2.72641926,17.4120173 3.65414717,17.368549 L3.89454268,17.3572854 L4.04519638,17.1624564 C4.70676789,16.3068961 5.72600668,15.7949605 6.83281856,15.7949605 Z" id="Path" fill="#6273A0"></path>
        <path d="M18.5,23 C18.8436438,23 19.1294517,23.2476252 19.1887221,23.5741741 L19.2,23.7 L19.2,24.809 L19.9849242,24.0251263 C20.2582912,23.7517593 20.7015067,23.7517593 20.9748737,24.0251263 C21.2178666,24.2681192 21.2448658,24.6453133 21.0558714,24.9181287 L20.9748737,25.0150758 L20.19,25.799 L21.3,25.8 C21.6865993,25.8 22,26.1134007 22,26.5 C22,26.8436438 21.7523748,27.1294517 21.4258259,27.1887221 L21.3,27.2 L20.189,27.199 L20.9748737,27.9849242 C21.2482407,28.2582912 21.2482407,28.7015067 20.9748737,28.9748737 C20.7318808,29.2178666 20.3546867,29.2448658 20.0818713,29.0558714 L19.9849242,28.9748737 L19.2,28.19 L19.2,29.3 C19.2,29.6865993 18.8865993,30 18.5,30 C18.1563562,30 17.8705483,29.7523748 17.8112779,29.4258259 L17.8,29.3 L17.8,28.189 L17.0150758,28.9748737 C16.7417088,29.2482407 16.2984933,29.2482407 16.0251263,28.9748737 C15.7821334,28.7318808 15.7551342,28.3546867 15.9441286,28.0818713 L16.0251263,27.9849242 L16.81,27.199 L15.7,27.2 C15.3134007,27.2 15,26.8865993 15,26.5 C15,26.1563562 15.2476252,25.8705483 15.5741741,25.8112779 L15.7,25.8 L16.809,25.799 L16.0251263,25.0150758 C15.7517593,24.7417088 15.7517593,24.2984933 16.0251263,24.0251263 C16.2681192,23.7821334 16.6453133,23.7551342 16.9181287,23.9441286 L17.0150758,24.0251263 L17.8,24.81 L17.8,23.7 C17.8,23.3134007 18.1134007,23 18.5,23 Z M12,24 C12.1963679,24 12.3596867,24.1415001 12.3935555,24.3280995 L12.4,24.4 L12.4,25.033 L12.8485281,24.5857864 C13.0047379,24.4295767 13.2580038,24.4295767 13.4142136,24.5857864 C13.5530666,24.7246395 13.5684948,24.940179 13.4604979,25.0960736 L13.4142136,25.1514719 L12.966,25.599 L13.6,25.6 C13.8209139,25.6 14,25.7790861 14,26 C14,26.1963679 13.8584999,26.3596867 13.6719005,26.3935555 L13.6,26.4 L12.965,26.399 L13.4142136,26.8485281 C13.5704233,27.0047379 13.5704233,27.2580038 13.4142136,27.4142136 C13.2753605,27.5530666 13.059821,27.5684948 12.9039264,27.4604979 L12.8485281,27.4142136 L12.4,26.966 L12.4,27.6 C12.4,27.8209139 12.2209139,28 12,28 C11.8036321,28 11.6403133,27.8584999 11.6064445,27.6719005 L11.6,27.6 L11.6,26.965 L11.1514719,27.4142136 C10.9952621,27.5704233 10.7419962,27.5704233 10.5857864,27.4142136 C10.4469334,27.2753605 10.4315052,27.059821 10.5395021,26.9039264 L10.5857864,26.8485281 L11.034,26.399 L10.4,26.4 C10.1790861,26.4 10,26.2209139 10,26 C10,25.8036321 10.1415001,25.6403133 10.3280995,25.6064445 L10.4,25.6 L11.033,25.599 L10.5857864,25.1514719 C10.4295767,24.9952621 10.4295767,24.7419962 10.5857864,24.5857864 C10.7246395,24.4469334 10.940179,24.4315052 11.0960736,24.5395021 L11.1514719,24.5857864 L11.6,25.034 L11.6,24.4 C11.6,24.1790861 11.7790861,24 12,24 Z M25,21 C25.1963679,21 25.3596867,21.1415001 25.3935555,21.3280995 L25.4,21.4 L25.4,22.033 L25.8485281,21.5857864 C26.0047379,21.4295767 26.2580038,21.4295767 26.4142136,21.5857864 C26.5530666,21.7246395 26.5684948,21.940179 26.4604979,22.0960736 L26.4142136,22.1514719 L25.966,22.599 L26.6,22.6 C26.8209139,22.6 27,22.7790861 27,23 C27,23.1963679 26.8584999,23.3596867 26.6719005,23.3935555 L26.6,23.4 L25.965,23.399 L26.4142136,23.8485281 C26.5704233,24.0047379 26.5704233,24.2580038 26.4142136,24.4142136 C26.2753605,24.5530666 26.059821,24.5684948 25.9039264,24.4604979 L25.8485281,24.4142136 L25.4,23.966 L25.4,24.6 C25.4,24.8209139 25.2209139,25 25,25 C24.8036321,25 24.6403133,24.8584999 24.6064445,24.6719005 L24.6,24.6 L24.6,23.965 L24.1514719,24.4142136 C23.9952621,24.5704233 23.7419962,24.5704233 23.5857864,24.4142136 C23.4469334,24.2753605 23.4315052,24.059821 23.5395021,23.9039264 L23.5857864,23.8485281 L24.034,23.399 L23.4,23.4 C23.1790861,23.4 23,23.2209139 23,23 C23,22.8036321 23.1415001,22.6403133 23.3280995,22.6064445 L23.4,22.6 L24.033,22.599 L23.5857864,22.1514719 C23.4295767,21.9952621 23.4295767,21.7419962 23.5857864,21.5857864 C23.7246395,21.4469334 23.940179,21.4315052 24.0960736,21.5395021 L24.1514719,21.5857864 L24.6,22.034 L24.6,21.4 C24.6,21.1790861 24.7790861,21 25,21 Z" id="Combined-Shape" fill="#B2CAFE" fill-rule="nonzero"></path>
    </g>
</svg>